#!OML:ASF C:\ViconDB\ViconDB\414\Spring2016\041811\Spring2016.ASF
:FULLY-SPECIFIED
:DEGREES
182
root 11.5194 17.6567 -3.97934 -180.267 -6.5133 -168.896
lowerback -0.185754 2.55484 -3.45407
upperback 1.66955 3.41121 0.549801
thorax 1.58309 1.63984 2.54248
lowerneck -9.62627 -4.45811 -12.788
upperneck 18.0354 -12.1814 26.8928
head 9.85212 -5.44574 10.3787
rclavicle -4.07509e-014 -1.90833e-014
rhumerus -87.4302 34.2089 -119.971
rradius 82.8448
rwrist 28.143
rhand -51.2238 -5.76443
rfingers 7.12502
rthumb -23.7633 -34.3151
lclavicle -4.07509e-014 -1.90833e-014
lhumerus -81.1652 -42.0167 115.717
lradius 79.2986
lwrist -32.4409
lhand -45.1094 -2.7182
lfingers 7.12502
lthumb -17.8889 26.4791
rfemur 120.321 73.763 -187.269
rtibia 35.1969
rfoot -101.069 -49.1245
rtoes 7.96329
lfemur -39.4052 -9.52778 2.30578
ltibia 29.6583
lfoot -13.9109 -2.29202
ltoes -14.7947
183
root 11.498 17.6299 -4.15044 -180.181 -6.47447 -168.745
lowerback -0.337461 2.6299 -3.44168
upperback 1.64296 3.51821 0.537726
thorax 1.63502 1.69357 2.531
lowerneck -9.59557 -4.46586 -13.0737
upperneck 18.0433 -12.2503 27.1956
head 9.91159 -5.49409 10.56
rclavicle -2.26615e-014 6.04305e-014
rhumerus -87.5845 34.0531 -120.083
rradius 82.8931
rwrist 27.6811
rhand -51.1857 -5.54821
rfingers 7.12502
rthumb -23.7267 -34.1036
lclavicle -2.26615e-014 6.04305e-014
lhumerus -81.0243 -42.0602 115.546
lradius 79.4697
lwrist -32.4705
lhand -44.7996 -2.99275
lfingers 7.12502
lthumb -17.5908 26.2315
rfemur 122.442 72.2335 -184.939
rtibia 34.9909
rfoot -98.8853 -49.2187
rtoes 7.7558
lfemur -39.4223 -9.76045 2.36389
ltibia 29.9076
lfoot -13.7919 -2.84071
ltoes -14.7706
184
root 11.4738 17.6095 -4.32021 -180.046 -6.40729 -168.688
lowerback -0.504821 2.70133 -3.40539
upperback 1.61837 3.6215 0.434051
thorax 1.70541 1.74575 2.41361
lowerneck -9.50096 -4.52185 -12.854
upperneck 17.9657 -12.3019 27.0268
head 9.84915 -5.51529 10.4287
rclavicle 1.78906e-015 3.65764e-014
rhumerus -87.5667 33.8756 -120.183
rradius 82.8825
rwrist 27.657
rhand -51.2059 -6.17605
rfingers 7.12502
rthumb -23.7461 -34.7289
lclavicle 1.78906e-015 3.65764e-014
lhumerus -81.0537 -42.1461 115.368
lradius 79.7379
lwrist -32.298
lhand -44.8247 -3.09597
lfingers 7.12502
lthumb -17.615 26.1261
rfemur 125.114 70.3721 -182.137
rtibia 34.8016
rfoot -96.0582 -49.1714
rtoes 6.82042
lfemur -39.4706 -9.98628 2.2808
ltibia 30.3001
lfoot -13.3992 -3.35904
ltoes -14.9109
185
root 11.4439 17.5831 -4.4952 -179.987 -6.38017 -168.528
lowerback -0.616981 2.72997 -3.32369
upperback 1.59559 3.66332 0.463948
thorax 1.74519 1.76782 2.40461
lowerneck -9.59576 -4.50923 -13.0797
upperneck 18.1194 -12.3159 27.1496
head 9.95119 -5.52382 10.5375
rclavicle -5.96354e-015 -9.22361e-014
rhumerus -87.7244 33.8212 -120.281
rradius 82.8951
rwrist 27.4347
rhand -51.2281 -5.97479
rfingers 7.12502
rthumb -23.7673 -34.5249
lclavicle -5.96354e-015 -9.22361e-014
lhumerus -80.7618 -42.0047 115.094
lradius 79.8024
lwrist -32.6172
lhand -44.5364 -3.24597
lfingers 7.12502
lthumb -17.3375 26.0007
rfemur 126.328 68.8393 -180.718
rtibia 34.5669
rfoot -93.9058 -49.1479
rtoes 6.2318
lfemur -39.4736 -10.1554 2.18856
ltibia 30.8734
lfoot -12.8985 -4.0379
ltoes -15.293
186
root 11.4077 17.5588 -4.67226 -179.785 -6.24283 -168.619
lowerback -0.881513 2.79525 -3.43657
upperback 1.546 3.76474 0.40962
thorax 1.8327 1.81713 2.42606
lowerneck -9.61632 -4.49467 -13.1728
upperneck 18.1798 -12.2857 27.1606
head 9.97544 -5.51055 10.5711
rclavicle 1.8487e-014 -2.22639e-014
rhumerus -87.8114 33.6983 -120.3
rradius 82.9069
rwrist 27.5697
rhand -51.0782 -6.26704
rfingers 7.12502
rthumb -23.6236 -34.8357
lclavicle 1.8487e-014 -2.22639e-014
lhumerus -80.6894 -42.0005 115.062
lradius 79.9405
lwrist -32.3905
lhand -44.5687 -3.16465
lfingers 7.12502
lthumb -17.3686 26.0793
rfemur 128.247 66.9766 -178.883
rtibia 34.3196
rfoot -91.3266 -49.0829
rtoes 5.09149
lfemur -39.4733 -10.1637 1.73896
ltibia 31.521
lfoot -12.2048 -4.86278
ltoes -15.9114
187
root 11.3733 17.5343 -4.85195 -179.666 -6.1703 -168.559
lowerback -1.0275 2.85126 -3.32877
upperback 1.50747 3.84498 0.312803
thorax 1.88315 1.85944 2.27523
lowerneck -9.66951 -4.54972 -12.8004
upperneck 18.212 -12.3283 26.8263
head 9.95484 -5.50763 10.344
rclavicle 3.83654e-014 -3.49861e-014
rhumerus -87.6303 33.4736 -120.318
rradius 82.8619
rwrist 27.0678
rhand -50.9223 -5.6019
rfingers 7.12502
rthumb -23.4741 -34.1898
lclavicle 3.83654e-014 -3.49861e-014
lhumerus -80.4916 -42.0431 114.764
lradius 79.9249
lwrist -32.5473
lhand -44.2446 -2.96322
lfingers 7.12502
lthumb -17.0567 26.308
rfemur 129.604 65.1519 -177.426
rtibia 34.0234
rfoot -88.9551 -49.2625
rtoes 3.78504
lfemur -39.4338 -10.3078 1.48241
ltibia 32.2446
lfoot -11.2703 -5.89511
ltoes -16.0244
188
root 11.3349 17.5244 -5.03239 -179.434 -6.14608 -168.604
lowerback -1.27369 2.89465 -3.37074
upperback 1.42609 3.91495 0.30346
thorax 1.93122 1.89527 2.30165
lowerneck -9.70454 -4.54839 -13.0986
upperneck 18.276 -12.3161 26.9669
head 10.0129 -5.51043 10.4736
rclavicle -5.60573e-014 6.83819e-014
rhumerus -87.7055 33.369 -120.29
rradius 82.8757
rwrist 27.0815
rhand -51.0567 -5.99774
rfingers 7.12502
rthumb -23.603 -34.5691
lclavicle -5.60573e-014 6.83819e-014
lhumerus -80.4021 -42.0396 114.723
lradius 80.0215
lwrist -32.4203
lhand -44.2566 -2.93419
lfingers 7.12502
lthumb -17.0682 26.336
rfemur 130.957 63.4731 -176.15
rtibia 33.7108
rfoot -86.6394 -48.9487
rtoes 2.11568
lfemur -39.6054 -10.7269 1.29524
ltibia 33.0209
lfoot -9.75641 -7.07017
ltoes -15.3693
189
root 11.2905 17.5161 -5.20953 -179.216 -6.14492 -168.824
lowerback -1.36324 2.86654 -3.54239
upperback 1.27003 3.88623 0.223152
thorax 1.8172 1.88458 2.31389
lowerneck -9.53606 -4.48502 -12.8976
upperneck 18.2904 -12.1605 26.655
head 9.90096 -5.44145 10.3239
rclavicle 1.61016e-014 -1.27222e-014
rhumerus -87.8785 33.2642 -120.419
rradius 82.8913
rwrist 26.6757
rhand -50.9189 -5.6881
rfingers 7.12502
rthumb -23.4708 -34.2764
lclavicle 1.61016e-014 -1.27222e-014
lhumerus -80.1901 -41.7558 114.453
lradius 79.9782
lwrist -32.6061
lhand -43.897 -3.11736
lfingers 7.12502
lthumb -16.7221 26.1824
rfemur 132.324 61.6054 -175.055
rtibia 33.347
rfoot -84.1899 -49.1528
rtoes 2.58727
lfemur -39.8987 -11.4544 1.07233
ltibia 33.8883
lfoot -8.16709 -8.05517
ltoes -14.3273
190
root 11.248 17.5091 -5.38643 -178.967 -6.2325 -169.052
lowerback -1.52624 2.83211 -3.73726
upperback 1.19544 3.85243 0.161389
thorax 1.82593 1.86674 2.36494
lowerneck -9.63405 -4.4551 -12.8885
upperneck 18.3659 -12.0738 26.5394
head 9.91481 -5.38949 10.2902
rclavicle 1.59028e-015 3.18055e-015
rhumerus -87.7744 33.1801 -120.376
rradius 82.7431
rwrist 26.9301
rhand -50.9627 -6.04059
rfingers 7.12502
rthumb -23.5128 -34.6235
lclavicle 1.59028e-015 3.18055e-015
lhumerus -79.8053 -41.6269 114.047
lradius 79.9593
lwrist -32.425
lhand -43.2964 -3.83954
lfingers 7.12502
lthumb -16.1438 25.5081
rfemur 133.818 59.5739 -173.816
rtibia 32.9568
rfoot -81.3383 -49.2542
rtoes 2.65222
lfemur -40.3358 -12.0931 0.808566
ltibia 34.8149
lfoot -6.97155 -8.98589
ltoes -13.5493
191
root 11.2026 17.5027 -5.56259 -178.72 -6.3042 -169.289
lowerback -1.66179 2.79666 -3.87006
upperback 1.12115 3.81497 0.034018
thorax 1.82829 1.84795 2.31254
lowerneck -9.76904 -4.38079 -12.9334
upperneck 18.39 -12.0137 26.7206
head 9.95564 -5.35118 10.3867
rclavicle -2.70347e-014 -1.90833e-014
rhumerus -87.5089 32.9826 -120.28
rradius 82.6303
rwrist 26.8076
rhand -50.8618 -5.48003
rfingers 7.12502
rthumb -23.4161 -34.0754
lclavicle -2.70347e-014 -1.90833e-014
lhumerus -79.6153 -41.5838 113.727
lradius 79.9355
lwrist -32.6799
lhand -43.2832 -3.66733
lfingers 7.12502
lthumb -16.1311 25.6814
rfemur 135.37 57.2894 -172.518
rtibia 32.5314
rfoot -78.0628 -49.5444
rtoes 2.40743
lfemur -40.7717 -12.3524 0.322459
ltibia 35.7652
lfoot -5.91747 -9.91634
ltoes -12.2573
192
root 11.151 17.5002 -5.74687 -178.551 -6.30161 -169.549
lowerback -1.71934 2.81896 -4.00246
upperback 0.975697 3.84945 -0.0240168
thorax 1.70407 1.86912 2.32564
lowerneck -9.67109 -4.3471 -12.9875
upperneck 18.4931 -11.9423 26.6027
head 9.94472 -5.32769 10.3671
rclavicle 1.70955e-014 3.33958e-014
rhumerus -87.4004 32.6589 -120.08
rradius 82.4443
rwrist 26.9106
rhand -51.1628 -5.72152
rfingers 7.12502
rthumb -23.7047 -34.2797
lclavicle 1.70955e-014 3.33958e-014
lhumerus -79.6341 -41.5318 113.714
lradius 79.9031
lwrist -32.7287
lhand -42.8073 -4.08242
lfingers 7.12502
lthumb -15.6728 25.3028
rfemur 136.693 54.739 -171.445
rtibia 32.064
rfoot -74.5182 -49.7304
rtoes 1.80028
lfemur -40.9972 -12.5624 -0.276478
ltibia 36.7116
lfoot -4.9076 -10.404
ltoes -11.0262
193
root 11.0978 17.498 -5.93272 -178.429 -6.32411 -169.685
lowerback -1.85881 2.80348 -4.05888
upperback 0.93916 3.83676 -0.0106767
thorax 1.7411 1.86217 2.37704
lowerneck -9.71992 -4.34688 -12.7387
upperneck 18.5904 -11.8362 26.1482
head 9.90704 -5.26024 10.1436
rclavicle -2.06736e-014 2.38542e-014
rhumerus -87.2515 32.5666 -119.936
rradius 82.316
rwrist 27.1812
rhand -51.3383 -5.85737
rfingers 7.12502
rthumb -23.8731 -34.3937
lclavicle -2.06736e-014 2.38542e-014
lhumerus -79.6953 -41.7049 113.859
lradius 79.8298
lwrist -32.444
lhand -42.8556 -4.2357
lfingers 7.12502
lthumb -15.7193 25.1459
rfemur 137.641 52.4534 -170.653
rtibia 31.5202
rfoot -71.4372 -50.0387
rtoes 2.32657
lfemur -41.1379 -12.8269 -0.725332
ltibia 37.6031
lfoot -4.37593 -10.3567
ltoes -9.97412
194
root 11.0343 17.5004 -6.12171 -178.295 -6.35182 -170.016
lowerback -2.03508 2.78411 -4.13475
upperback 0.90274 3.8215 -0.108703
thorax 1.80542 1.8528 2.32708
lowerneck -9.87845 -4.27333 -13.0786
upperneck 18.86 -11.836 26.4398
head 10.0794 -5.26444 10.358
rclavicle -7.53394e-014 -3.33958e-014
rhumerus -87.1441 32.4686 -119.843
rradius 82.2766
rwrist 27.1557
rhand -51.591 -6.0062
rfingers 7.12502
rthumb -24.1154 -34.5106
lclavicle -7.53394e-014 -3.33958e-014
lhumerus -79.6485 -41.7523 113.912
lradius 79.6266
lwrist -32.5019
lhand -42.6585 -4.34974
lfingers 7.12502
lthumb -15.5295 25.0467
rfemur 138.498 50.155 -170.202
rtibia 30.9393
rfoot -68.489 -50.5227
rtoes 0.935051
lfemur -41.1581 -13.2555 -1.35096
ltibia 38.4216
lfoot -4.55284 -9.61628
ltoes -10.183
